<svg width="227" height="13" viewBox="0 0 227 13" fill="none" xmlns="http://www.w3.org/2000/svg">
<path d="M7.42969 0.545454V10H6.00781V1.7642H1.55753V10H0.135653V0.545454H7.42969ZM12.487 10.1431C11.8223 10.1431 11.2421 9.99077 10.7466 9.68608C10.2511 9.38139 9.86642 8.95514 9.59251 8.40732C9.3186 7.85949 9.18164 7.21934 9.18164 6.48686C9.18164 5.7513 9.3186 5.10807 9.59251 4.55717C9.86642 4.00627 10.2511 3.57848 10.7466 3.27379C11.2421 2.96911 11.8223 2.81676 12.487 2.81676C13.1518 2.81676 13.7319 2.96911 14.2275 3.27379C14.723 3.57848 15.1077 4.00627 15.3816 4.55717C15.6555 5.10807 15.7924 5.7513 15.7924 6.48686C15.7924 7.21934 15.6555 7.85949 15.3816 8.40732C15.1077 8.95514 14.723 9.38139 14.2275 9.68608C13.7319 9.99077 13.1518 10.1431 12.487 10.1431ZM12.4917 8.98438C12.9225 8.98438 13.2795 8.8705 13.5627 8.64276C13.8458 8.41501 14.0551 8.11186 14.1905 7.73331C14.329 7.35476 14.3983 6.93774 14.3983 6.48224C14.3983 6.02983 14.329 5.61435 14.1905 5.2358C14.0551 4.85417 13.8458 4.54794 13.5627 4.31712C13.2795 4.08629 12.9225 3.97088 12.4917 3.97088C12.0577 3.97088 11.6976 4.08629 11.4114 4.31712C11.1283 4.54794 10.9174 4.85417 10.7789 5.2358C10.6435 5.61435 10.5758 6.02983 10.5758 6.48224C10.5758 6.93774 10.6435 7.35476 10.7789 7.73331C10.9174 8.11186 11.1283 8.41501 11.4114 8.64276C11.6976 8.8705 12.0577 8.98438 12.4917 8.98438ZM20.7736 10V2.90909H23.7143C24.5145 2.90909 25.1485 3.0799 25.6163 3.42152C26.0841 3.76006 26.318 4.22017 26.318 4.80185C26.318 5.21733 26.1857 5.54664 25.921 5.78977C25.6563 6.03291 25.3055 6.19602 24.8684 6.27912C25.1854 6.31605 25.4763 6.41146 25.7409 6.56534C26.0056 6.71615 26.218 6.91927 26.378 7.17472C26.5411 7.43016 26.6227 7.73485 26.6227 8.08878C26.6227 8.46425 26.5257 8.79664 26.3319 9.08594C26.138 9.37216 25.8564 9.59683 25.487 9.75994C25.1208 9.91998 24.6792 10 24.1621 10H20.7736ZM22.0708 8.84588H24.1621C24.5037 8.84588 24.7715 8.76432 24.9654 8.60121C25.1593 8.43809 25.2562 8.2165 25.2562 7.93643C25.2562 7.60713 25.1593 7.3486 24.9654 7.16087C24.7715 6.97005 24.5037 6.87464 24.1621 6.87464H22.0708V8.84588ZM22.0708 5.86364H23.7282C23.9867 5.86364 24.2083 5.8267 24.3929 5.75284C24.5807 5.67898 24.7238 5.57434 24.8223 5.43892C24.9238 5.30043 24.9746 5.13731 24.9746 4.94957C24.9746 4.67566 24.8623 4.46177 24.6376 4.30788C24.4129 4.154 24.1052 4.07706 23.7143 4.07706H22.0708V5.86364ZM31.1238 10.1431C30.459 10.1431 29.8788 9.99077 29.3833 9.68608C28.8878 9.38139 28.5031 8.95514 28.2292 8.40732C27.9553 7.85949 27.8184 7.21934 27.8184 6.48686C27.8184 5.7513 27.9553 5.10807 28.2292 4.55717C28.5031 4.00627 28.8878 3.57848 29.3833 3.27379C29.8788 2.96911 30.459 2.81676 31.1238 2.81676C31.7885 2.81676 32.3687 2.96911 32.8642 3.27379C33.3597 3.57848 33.7444 4.00627 34.0183 4.55717C34.2922 5.10807 34.4292 5.7513 34.4292 6.48686C34.4292 7.21934 34.2922 7.85949 34.0183 8.40732C33.7444 8.95514 33.3597 9.38139 32.8642 9.68608C32.3687 9.99077 31.7885 10.1431 31.1238 10.1431ZM31.1284 8.98438C31.5592 8.98438 31.9163 8.8705 32.1994 8.64276C32.4825 8.41501 32.6918 8.11186 32.8272 7.73331C32.9657 7.35476 33.035 6.93774 33.035 6.48224C33.035 6.02983 32.9657 5.61435 32.8272 5.2358C32.6918 4.85417 32.4825 4.54794 32.1994 4.31712C31.9163 4.08629 31.5592 3.97088 31.1284 3.97088C30.6944 3.97088 30.3343 4.08629 30.0481 4.31712C29.765 4.54794 29.5542 4.85417 29.4157 5.2358C29.2802 5.61435 29.2125 6.02983 29.2125 6.48224C29.2125 6.93774 29.2802 7.35476 29.4157 7.73331C29.5542 8.11186 29.765 8.41501 30.0481 8.64276C30.3343 8.8705 30.6944 8.98438 31.1284 8.98438ZM35.4113 10L35.4067 8.80433H35.6606C35.8576 8.80433 36.0222 8.76278 36.1546 8.67969C36.29 8.59351 36.4008 8.44886 36.4869 8.24574C36.5731 8.04261 36.6393 7.76255 36.6855 7.40554C36.7316 7.04545 36.7655 6.59304 36.787 6.0483L36.9117 2.90909H41.8605V10H40.5079V4.10014H38.1904L38.0796 6.50994C38.0519 7.0947 37.9919 7.60559 37.8996 8.04261C37.8103 8.47964 37.6795 8.84434 37.5072 9.13672C37.3348 9.42602 37.1133 9.64299 36.8424 9.78764C36.5716 9.92921 36.2423 10 35.8545 10H35.4113ZM48.5071 5.85902V7.05469H44.6662V5.85902H48.5071ZM45.054 2.90909V10H43.7013V2.90909H45.054ZM49.4719 2.90909V10H48.1239V2.90909H49.4719ZM53.3821 10.157C52.9328 10.157 52.5265 10.0739 52.1634 9.90767C51.8002 9.7384 51.5124 9.49373 51.3001 9.17365C51.0908 8.85357 50.9862 8.46117 50.9862 7.99645C50.9862 7.59635 51.0631 7.26705 51.217 7.00852C51.3709 6.75 51.5786 6.54534 51.8402 6.39453C52.1018 6.24373 52.3942 6.12985 52.7173 6.05291C53.0405 5.97597 53.3698 5.9175 53.7053 5.87749C54.13 5.82824 54.4747 5.78823 54.7393 5.75746C55.004 5.7236 55.1964 5.66974 55.3164 5.59588C55.4364 5.52202 55.4964 5.40199 55.4964 5.2358V5.20348C55.4964 4.80031 55.3826 4.48793 55.1548 4.26633C54.9302 4.04474 54.5947 3.93395 54.1484 3.93395C53.6837 3.93395 53.3175 4.03705 53.0497 4.24325C52.785 4.44638 52.6019 4.67259 52.5004 4.92188L51.2031 4.62642C51.357 4.19555 51.5817 3.84777 51.8771 3.5831C52.1757 3.31534 52.5188 3.12145 52.9066 3.00142C53.2944 2.87831 53.7022 2.81676 54.13 2.81676C54.4131 2.81676 54.7132 2.85062 55.0302 2.91832C55.3503 2.98295 55.6488 3.10298 55.9258 3.27841C56.2058 3.45383 56.4351 3.70466 56.6136 4.03089C56.7921 4.35405 56.8814 4.77415 56.8814 5.29119V10H55.5334V9.03054H55.478C55.3887 9.20904 55.2549 9.38447 55.0763 9.55682C54.8978 9.72917 54.6686 9.87228 54.3885 9.98615C54.1084 10.1 53.773 10.157 53.3821 10.157ZM53.6822 9.04901C54.0638 9.04901 54.39 8.9736 54.6609 8.8228C54.9348 8.67199 55.1425 8.47502 55.2841 8.23189C55.4287 7.98568 55.5011 7.72254 55.5011 7.44247V6.52841C55.4518 6.57765 55.3564 6.62382 55.2148 6.6669C55.0763 6.70691 54.9179 6.74231 54.7393 6.77308C54.5608 6.80078 54.387 6.82694 54.2177 6.85156C54.0484 6.87311 53.9068 6.89157 53.793 6.90696C53.5252 6.94081 53.2805 6.99775 53.0589 7.07777C52.8404 7.15779 52.665 7.2732 52.5327 7.42401C52.4034 7.57173 52.3388 7.7687 52.3388 8.01491C52.3388 8.35653 52.465 8.61506 52.7173 8.79048C52.9697 8.96283 53.2913 9.04901 53.6822 9.04901ZM62.6993 8.2919L64.9891 2.90909H66.1801L63.2117 10H62.1869L59.2785 2.90909H60.4557L62.6993 8.2919ZM60.0725 2.90909V10H58.7199V2.90909H60.0725ZM65.363 10V2.90909H66.7064V10H65.363ZM69.4555 10.0877C69.2032 10.0877 68.9862 9.99846 68.8046 9.81996C68.623 9.63838 68.5322 9.41986 68.5322 9.16442C68.5322 8.91205 68.623 8.69661 68.8046 8.51811C68.9862 8.33653 69.2032 8.24574 69.4555 8.24574C69.7079 8.24574 69.9249 8.33653 70.1064 8.51811C70.288 8.69661 70.3788 8.91205 70.3788 9.16442C70.3788 9.33369 70.3357 9.48911 70.2496 9.63068C70.1665 9.76918 70.0557 9.87997 69.9172 9.96307C69.7787 10.0462 69.6248 10.0877 69.4555 10.0877ZM69.4555 4.92649C69.2032 4.92649 68.9862 4.8357 68.8046 4.65412C68.623 4.47254 68.5322 4.25556 68.5322 4.0032C68.5322 3.75083 68.623 3.53539 68.8046 3.35689C68.9862 3.17531 69.2032 3.08452 69.4555 3.08452C69.7079 3.08452 69.9249 3.17531 70.1064 3.35689C70.288 3.53539 70.3788 3.75083 70.3788 4.0032C70.3788 4.17247 70.3357 4.32789 70.2496 4.46946C70.1665 4.60795 70.0557 4.71875 69.9172 4.80185C69.7787 4.88494 69.6248 4.92649 69.4555 4.92649ZM75.7789 0.545454H77.1916V7.48864H77.2793L82.0897 0.545454H83.41V10H81.9835V3.06605H81.8958L77.0946 10H75.7789V0.545454ZM88.3669 10.1431C87.6806 10.1431 87.0897 9.98769 86.5942 9.67685C86.1018 9.36293 85.7232 8.93052 85.4585 8.37962C85.1939 7.82872 85.0615 7.1978 85.0615 6.48686C85.0615 5.76669 85.1969 5.13115 85.4678 4.58026C85.7386 4.02628 86.1202 3.59387 86.6127 3.28303C87.1051 2.97218 87.6852 2.81676 88.3531 2.81676C88.8917 2.81676 89.3718 2.91679 89.7934 3.11683C90.2151 3.3138 90.5551 3.59079 90.8137 3.9478C91.0753 4.30481 91.2307 4.72183 91.2799 5.19886H89.9365C89.8627 4.86648 89.6934 4.58026 89.4287 4.3402C89.1671 4.10014 88.8163 3.98011 88.3762 3.98011C87.9914 3.98011 87.6544 4.08168 87.3651 4.2848C87.0789 4.48485 86.8558 4.77107 86.6958 5.14347C86.5357 5.51278 86.4557 5.94981 86.4557 6.45455C86.4557 6.97159 86.5342 7.41785 86.6911 7.79332C86.8481 8.1688 87.0697 8.45964 87.3559 8.66584C87.6452 8.87204 87.9853 8.97514 88.3762 8.97514C88.6378 8.97514 88.8747 8.92744 89.0871 8.83203C89.3025 8.73355 89.4826 8.59351 89.6272 8.41193C89.7749 8.23035 89.878 8.01184 89.9365 7.75639H91.2799C91.2307 8.21496 91.0814 8.62429 90.8321 8.98438C90.5828 9.34446 90.2489 9.6276 89.8303 9.83381C89.4149 10.04 88.9271 10.1431 88.3669 10.1431ZM92.756 10V2.90909H94.1364V5.8821H94.8011L97.1417 2.90909H98.8498L96.103 6.3576L98.8821 10H97.1694L95.032 7.16548H94.1364V10H92.756ZM100.865 12.6591C100.659 12.6591 100.471 12.6422 100.302 12.6083C100.132 12.5775 100.006 12.5437 99.9231 12.5067L100.256 11.3757C100.508 11.4434 100.733 11.4727 100.93 11.4634C101.126 11.4542 101.3 11.3803 101.451 11.2418C101.605 11.1033 101.74 10.8771 101.857 10.5632L102.028 10.0923L99.4338 2.90909H100.911L102.707 8.41193H102.781L104.577 2.90909H106.058L103.136 10.9464C103.001 11.3157 102.828 11.6281 102.619 11.8835C102.41 12.142 102.161 12.3359 101.871 12.4652C101.582 12.5945 101.247 12.6591 100.865 12.6591ZM110.101 10.1431C109.415 10.1431 108.824 9.98769 108.329 9.67685C107.836 9.36293 107.458 8.93052 107.193 8.37962C106.928 7.82872 106.796 7.1978 106.796 6.48686C106.796 5.76669 106.931 5.13115 107.202 4.58026C107.473 4.02628 107.855 3.59387 108.347 3.28303C108.839 2.97218 109.42 2.81676 110.087 2.81676C110.626 2.81676 111.106 2.91679 111.528 3.11683C111.949 3.3138 112.29 3.59079 112.548 3.9478C112.81 4.30481 112.965 4.72183 113.014 5.19886H111.671C111.597 4.86648 111.428 4.58026 111.163 4.3402C110.901 4.10014 110.551 3.98011 110.111 3.98011C109.726 3.98011 109.389 4.08168 109.1 4.2848C108.813 4.48485 108.59 4.77107 108.43 5.14347C108.27 5.51278 108.19 5.94981 108.19 6.45455C108.19 6.97159 108.269 7.41785 108.426 7.79332C108.582 8.1688 108.804 8.45964 109.09 8.66584C109.38 8.87204 109.72 8.97514 110.111 8.97514C110.372 8.97514 110.609 8.92744 110.821 8.83203C111.037 8.73355 111.217 8.59351 111.362 8.41193C111.509 8.23035 111.612 8.01184 111.671 7.75639H113.014C112.965 8.21496 112.816 8.62429 112.566 8.98438C112.317 9.34446 111.983 9.6276 111.565 9.83381C111.149 10.04 110.661 10.1431 110.101 10.1431ZM117.477 10.1431C116.791 10.1431 116.2 9.98769 115.705 9.67685C115.212 9.36293 114.834 8.93052 114.569 8.37962C114.304 7.82872 114.172 7.1978 114.172 6.48686C114.172 5.76669 114.307 5.13115 114.578 4.58026C114.849 4.02628 115.231 3.59387 115.723 3.28303C116.215 2.97218 116.796 2.81676 117.463 2.81676C118.002 2.81676 118.482 2.91679 118.904 3.11683C119.325 3.3138 119.665 3.59079 119.924 3.9478C120.186 4.30481 120.341 4.72183 120.39 5.19886H119.047C118.973 4.86648 118.804 4.58026 118.539 4.3402C118.277 4.10014 117.927 3.98011 117.487 3.98011C117.102 3.98011 116.765 4.08168 116.475 4.2848C116.189 4.48485 115.966 4.77107 115.806 5.14347C115.646 5.51278 115.566 5.94981 115.566 6.45455C115.566 6.97159 115.645 7.41785 115.801 7.79332C115.958 8.1688 116.18 8.45964 116.466 8.66584C116.756 8.87204 117.096 8.97514 117.487 8.97514C117.748 8.97514 117.985 8.92744 118.197 8.83203C118.413 8.73355 118.593 8.59351 118.738 8.41193C118.885 8.23035 118.988 8.01184 119.047 7.75639H120.39C120.341 8.21496 120.192 8.62429 119.942 8.98438C119.693 9.34446 119.359 9.6276 118.941 9.83381C118.525 10.04 118.037 10.1431 117.477 10.1431ZM121.33 4.10014V2.90909H127.313V4.10014H125V10H123.652V4.10014H121.33ZM128.773 10V2.90909H131.713C132.514 2.90909 133.148 3.0799 133.615 3.42152C134.083 3.76006 134.317 4.22017 134.317 4.80185C134.317 5.21733 134.185 5.54664 133.92 5.78977C133.655 6.03291 133.304 6.19602 132.867 6.27912C133.184 6.31605 133.475 6.41146 133.74 6.56534C134.005 6.71615 134.217 6.91927 134.377 7.17472C134.54 7.43016 134.622 7.73485 134.622 8.08878C134.622 8.46425 134.525 8.79664 134.331 9.08594C134.137 9.37216 133.855 9.59683 133.486 9.75994C133.12 9.91998 132.678 10 132.161 10H128.773ZM130.07 8.84588H132.161C132.503 8.84588 132.771 8.76432 132.964 8.60121C133.158 8.43809 133.255 8.2165 133.255 7.93643C133.255 7.60713 133.158 7.3486 132.964 7.16087C132.771 6.97005 132.503 6.87464 132.161 6.87464H130.07V8.84588ZM130.07 5.86364H131.727C131.986 5.86364 132.207 5.8267 132.392 5.75284C132.58 5.67898 132.723 5.57434 132.821 5.43892C132.923 5.30043 132.974 5.13731 132.974 4.94957C132.974 4.67566 132.861 4.46177 132.637 4.30788C132.412 4.154 132.104 4.07706 131.713 4.07706H130.07V5.86364ZM139.123 10.1431C138.458 10.1431 137.878 9.99077 137.382 9.68608C136.887 9.38139 136.502 8.95514 136.228 8.40732C135.954 7.85949 135.817 7.21934 135.817 6.48686C135.817 5.7513 135.954 5.10807 136.228 4.55717C136.502 4.00627 136.887 3.57848 137.382 3.27379C137.878 2.96911 138.458 2.81676 139.123 2.81676C139.788 2.81676 140.368 2.96911 140.863 3.27379C141.359 3.57848 141.743 4.00627 142.017 4.55717C142.291 5.10807 142.428 5.7513 142.428 6.48686C142.428 7.21934 142.291 7.85949 142.017 8.40732C141.743 8.95514 141.359 9.38139 140.863 9.68608C140.368 9.99077 139.788 10.1431 139.123 10.1431ZM139.127 8.98438C139.558 8.98438 139.915 8.8705 140.198 8.64276C140.482 8.41501 140.691 8.11186 140.826 7.73331C140.965 7.35476 141.034 6.93774 141.034 6.48224C141.034 6.02983 140.965 5.61435 140.826 5.2358C140.691 4.85417 140.482 4.54794 140.198 4.31712C139.915 4.08629 139.558 3.97088 139.127 3.97088C138.693 3.97088 138.333 4.08629 138.047 4.31712C137.764 4.54794 137.553 4.85417 137.415 5.2358C137.279 5.61435 137.212 6.02983 137.212 6.48224C137.212 6.93774 137.279 7.35476 137.415 7.73331C137.553 8.11186 137.764 8.41501 138.047 8.64276C138.333 8.8705 138.693 8.98438 139.127 8.98438ZM146.989 8.12571H148.402C148.42 8.41501 148.551 8.63814 148.794 8.7951C149.041 8.95206 149.359 9.03054 149.75 9.03054C150.147 9.03054 150.485 8.9459 150.766 8.77663C151.046 8.60428 151.186 8.33807 151.186 7.97798C151.186 7.76255 151.132 7.57481 151.024 7.41477C150.919 7.25166 150.77 7.12547 150.576 7.03622C150.385 6.94697 150.159 6.90234 149.898 6.90234H148.744V5.81747H149.898C150.289 5.81747 150.581 5.72822 150.775 5.54972C150.969 5.37121 151.066 5.14808 151.066 4.88033C151.066 4.59103 150.961 4.35866 150.752 4.18324C150.545 4.00473 150.258 3.91548 149.888 3.91548C149.513 3.91548 149.201 4.00012 148.951 4.16939C148.702 4.33558 148.571 4.55102 148.559 4.8157H147.165C147.174 4.41868 147.294 4.0709 147.525 3.77237C147.759 3.47076 148.073 3.23686 148.467 3.07067C148.864 2.9014 149.314 2.81676 149.819 2.81676C150.345 2.81676 150.801 2.9014 151.186 3.07067C151.57 3.23994 151.867 3.47384 152.077 3.77237C152.289 4.0709 152.395 4.41406 152.395 4.80185C152.395 5.19271 152.278 5.51278 152.044 5.76207C151.813 6.00829 151.512 6.18525 151.139 6.29297V6.36683C151.413 6.3853 151.657 6.46839 151.869 6.61612C152.081 6.76385 152.247 6.95928 152.367 7.20241C152.487 7.44555 152.547 7.721 152.547 8.02876C152.547 8.46271 152.427 8.83819 152.187 9.15518C151.95 9.47218 151.621 9.71686 151.199 9.8892C150.781 10.0585 150.302 10.1431 149.764 10.1431C149.241 10.1431 148.771 10.0616 148.356 9.89844C147.943 9.73224 147.616 9.49834 147.372 9.19673C147.132 8.89512 147.005 8.53812 146.989 8.12571ZM153.973 10V2.90909H156.914C157.714 2.90909 158.348 3.0799 158.816 3.42152C159.283 3.76006 159.517 4.22017 159.517 4.80185C159.517 5.21733 159.385 5.54664 159.12 5.78977C158.856 6.03291 158.505 6.19602 158.068 6.27912C158.385 6.31605 158.675 6.41146 158.94 6.56534C159.205 6.71615 159.417 6.91927 159.577 7.17472C159.74 7.43016 159.822 7.73485 159.822 8.08878C159.822 8.46425 159.725 8.79664 159.531 9.08594C159.337 9.37216 159.056 9.59683 158.686 9.75994C158.32 9.91998 157.878 10 157.361 10H153.973ZM155.27 8.84588H157.361C157.703 8.84588 157.971 8.76432 158.165 8.60121C158.358 8.43809 158.455 8.2165 158.455 7.93643C158.455 7.60713 158.358 7.3486 158.165 7.16087C157.971 6.97005 157.703 6.87464 157.361 6.87464H155.27V8.84588ZM155.27 5.86364H156.927C157.186 5.86364 157.407 5.8267 157.592 5.75284C157.78 5.67898 157.923 5.57434 158.021 5.43892C158.123 5.30043 158.174 5.13731 158.174 4.94957C158.174 4.67566 158.061 4.46177 157.837 4.30788C157.612 4.154 157.304 4.07706 156.914 4.07706H155.27V5.86364ZM162.209 12.6591C162.002 12.6591 161.815 12.6422 161.645 12.6083C161.476 12.5775 161.35 12.5437 161.267 12.5067L161.599 11.3757C161.852 11.4434 162.076 11.4727 162.273 11.4634C162.47 11.4542 162.644 11.3803 162.795 11.2418C162.949 11.1033 163.084 10.8771 163.201 10.5632L163.372 10.0923L160.778 2.90909H162.255L164.051 8.41193H164.124L165.92 2.90909H167.402L164.48 10.9464C164.345 11.3157 164.172 11.6281 163.963 11.8835C163.754 12.142 163.504 12.3359 163.215 12.4652C162.926 12.5945 162.59 12.6591 162.209 12.6591ZM168.699 10V2.90909H170.08V5.8821H170.744L173.085 2.90909H174.793L172.046 6.3576L174.825 10H173.113L170.975 7.16548H170.08V10H168.699ZM177.961 10.157C177.512 10.157 177.106 10.0739 176.742 9.90767C176.379 9.7384 176.092 9.49373 175.879 9.17365C175.67 8.85357 175.565 8.46117 175.565 7.99645C175.565 7.59635 175.642 7.26705 175.796 7.00852C175.95 6.75 176.158 6.54534 176.419 6.39453C176.681 6.24373 176.973 6.12985 177.296 6.05291C177.62 5.97597 177.949 5.9175 178.284 5.87749C178.709 5.82824 179.054 5.78823 179.318 5.75746C179.583 5.7236 179.775 5.66974 179.896 5.59588C180.016 5.52202 180.076 5.40199 180.076 5.2358V5.20348C180.076 4.80031 179.962 4.48793 179.734 4.26633C179.509 4.04474 179.174 3.93395 178.728 3.93395C178.263 3.93395 177.897 4.03705 177.629 4.24325C177.364 4.44638 177.181 4.67259 177.079 4.92188L175.782 4.62642C175.936 4.19555 176.161 3.84777 176.456 3.5831C176.755 3.31534 177.098 3.12145 177.486 3.00142C177.873 2.87831 178.281 2.81676 178.709 2.81676C178.992 2.81676 179.292 2.85062 179.609 2.91832C179.929 2.98295 180.228 3.10298 180.505 3.27841C180.785 3.45383 181.014 3.70466 181.193 4.03089C181.371 4.35405 181.46 4.77415 181.46 5.29119V10H180.112V9.03054H180.057C179.968 9.20904 179.834 9.38447 179.655 9.55682C179.477 9.72917 179.248 9.87228 178.968 9.98615C178.688 10.1 178.352 10.157 177.961 10.157ZM178.261 9.04901C178.643 9.04901 178.969 8.9736 179.24 8.8228C179.514 8.67199 179.722 8.47502 179.863 8.23189C180.008 7.98568 180.08 7.72254 180.08 7.44247V6.52841C180.031 6.57765 179.936 6.62382 179.794 6.6669C179.655 6.70691 179.497 6.74231 179.318 6.77308C179.14 6.80078 178.966 6.82694 178.797 6.85156C178.628 6.87311 178.486 6.89157 178.372 6.90696C178.104 6.94081 177.86 6.99775 177.638 7.07777C177.42 7.15779 177.244 7.2732 177.112 7.42401C176.983 7.57173 176.918 7.7687 176.918 8.01491C176.918 8.35653 177.044 8.61506 177.296 8.79048C177.549 8.96283 177.87 9.04901 178.261 9.04901ZM186.739 10V2.90909H189.68C190.48 2.90909 191.114 3.0799 191.582 3.42152C192.05 3.76006 192.284 4.22017 192.284 4.80185C192.284 5.21733 192.151 5.54664 191.887 5.78977C191.622 6.03291 191.271 6.19602 190.834 6.27912C191.151 6.31605 191.442 6.41146 191.707 6.56534C191.971 6.71615 192.184 6.91927 192.344 7.17472C192.507 7.43016 192.589 7.73485 192.589 8.08878C192.589 8.46425 192.492 8.79664 192.298 9.08594C192.104 9.37216 191.822 9.59683 191.453 9.75994C191.087 9.91998 190.645 10 190.128 10H186.739ZM188.037 8.84588H190.128C190.47 8.84588 190.737 8.76432 190.931 8.60121C191.125 8.43809 191.222 8.2165 191.222 7.93643C191.222 7.60713 191.125 7.3486 190.931 7.16087C190.737 6.97005 190.47 6.87464 190.128 6.87464H188.037V8.84588ZM188.037 5.86364H189.694C189.953 5.86364 190.174 5.8267 190.359 5.75284C190.546 5.67898 190.69 5.57434 190.788 5.43892C190.89 5.30043 190.94 5.13731 190.94 4.94957C190.94 4.67566 190.828 4.46177 190.603 4.30788C190.379 4.154 190.071 4.07706 189.68 4.07706H188.037V5.86364ZM197.543 10V2.90909H198.923V5.8821H199.588L201.929 2.90909H203.637L200.89 6.3576L203.669 10H201.956L199.819 7.16548H198.923V10H197.543ZM206.094 8.0657L209.219 2.90909H210.706V10H209.353V4.83878L206.242 10H204.741V2.90909H206.094V8.0657ZM217.367 5.85902V7.05469H213.527V5.85902H217.367ZM213.914 2.90909V10H212.562V2.90909H213.914ZM218.332 2.90909V10H216.984V2.90909H218.332ZM223.166 10.1431C222.501 10.1431 221.921 9.99077 221.425 9.68608C220.93 9.38139 220.545 8.95514 220.271 8.40732C219.997 7.85949 219.86 7.21934 219.86 6.48686C219.86 5.7513 219.997 5.10807 220.271 4.55717C220.545 4.00627 220.93 3.57848 221.425 3.27379C221.921 2.96911 222.501 2.81676 223.166 2.81676C223.831 2.81676 224.411 2.96911 224.906 3.27379C225.402 3.57848 225.786 4.00627 226.06 4.55717C226.334 5.10807 226.471 5.7513 226.471 6.48686C226.471 7.21934 226.334 7.85949 226.06 8.40732C225.786 8.95514 225.402 9.38139 224.906 9.68608C224.411 9.99077 223.831 10.1431 223.166 10.1431ZM223.17 8.98438C223.601 8.98438 223.958 8.8705 224.241 8.64276C224.525 8.41501 224.734 8.11186 224.869 7.73331C225.008 7.35476 225.077 6.93774 225.077 6.48224C225.077 6.02983 225.008 5.61435 224.869 5.2358C224.734 4.85417 224.525 4.54794 224.241 4.31712C223.958 4.08629 223.601 3.97088 223.17 3.97088C222.736 3.97088 222.376 4.08629 222.09 4.31712C221.807 4.54794 221.596 4.85417 221.458 5.2358C221.322 5.61435 221.255 6.02983 221.255 6.48224C221.255 6.93774 221.322 7.35476 221.458 7.73331C221.596 8.11186 221.807 8.41501 222.09 8.64276C222.376 8.8705 222.736 8.98438 223.17 8.98438Z" fill="white"/>
</svg>
